<svg version="1" xmlns="http://www.w3.org/2000/svg" width="800" height="800" viewBox="0 0 600.000000 600.000000"><path d="M336 1c0 .5.4 1 .9 1 .6 0 1.3-.5 1.6-1 .3-.6-.1-1-.9-1-.9 0-1.6.4-1.6 1zM350.6 2.2c1 1.3 2.4 2.6 2.9 3 .6.5.5.8-.2.8s-1.3.4-1.3 1c0 .5.8 1 1.8 1s2.3.5 3 1.2c.8.8 1.5.8 2.7-.2 1.4-1.1 1.8-1 3.2.9 1.2 1.8 1.7 2 2.4 1 .6-.9.9-.2.9 2.3 0 3.8 1.4 5.1 4.1 3.7.9-.4 3.3-.5 5.4-.2 2.9.5 3.9 1.2 4.7 3.4.5 1.6 1.7 2.9 2.5 2.9 1 0 1.4.7 1.1 1.7-.4 1.6.1 1.8 3.9 1.4 2.5-.2 4.3.1 4.3.7s1 1.2 2.2 1.4c1.3.2 2.9 1.5 3.6 3.1 1.2 2.4 1.5 2.6 2.8 1.2 1.6-1.5 6.5-1.1 7.2.7.6 1.4 2.8.9 4.6-1.1.9-1 1.4-2.5 1-3.5-.6-1.5-.3-1.7 3.9-2 .7-.1 1.1.8.9 2.1-.3 1.8.2 2.3 2 2.3 1.7 0 1.9-.3.9-.9-1.9-1.2-.2-1.9 4.4-1.6 5.3.3 5.3.3 3.1 2-1.7 1.3-1.7 1.5-.3 1.5.9 0 2.2.8 2.9 1.8 1.4 2 8.8 3.7 8.8 2.1 0-.6.7-.6 1.9 0 2.1 1.2 3.2.5 2.5-1.4-.3-.7-.1-1.6.4-1.9 2.1-1.3 2.2 2.8.1 4.7-1.9 1.8-1.9 2.1-.5 3.5.9.9 3 2.1 4.8 2.6 2.6.9 3.4 1.7 3.6 4.1.2 1.6.9 3.3 1.5 3.7 1.4.9 4.9-2.1 4-3.5-.3-.6-.1-.7.5-.3.8.4 1.2 0 1.2-1 0-1.5.2-1.6 1.3-.5 1 1.1 1 1.4 0 1.8-.7.3-1.3 1.3-1.3 2.4 0 1.7.8 1.9 6 1.9 4.7 0 6 .3 6 1.5 0 .8-.7 1.5-1.5 1.5-.9 0-1.2.6-.8 1.6.4 1.1.9 1.2 1.6.5.6-.6 2.1-1.1 3.3-1.1 1.3 0 2.6-.5 2.9-1 1-1.6 2.5-1.1 2.5.8 0 1.5 4.6 4.2 7.3 4.2 1.7 0 .5-1.8-1.5-2.4-2.2-.5-2.2-.6-.3-2 1.8-1.3 2.1-1.2 3.2 1.5 1.3 3.2 2.8 4 2 1-.5-2 4.5-5.7 6.3-4.6 1.3.8 1.3 3.5 0 3.5-.5 0-1 .6-1 1.4 0 1.9 3.9 3.1 5.3 1.7 1.5-1.5 2.7-1.4 2.7.4 0 1.1.7 1.4 2.5.9 2-.5 2.4-.3 1.9 1-.3.9-1.3 1.6-2.1 1.6s-1.3.6-1 1.2c.2.7 1.1 1.1 1.8.9.8-.1 2.3-.4 3.4-.5 1.1-.2 3-.6 4.2-1 1.2-.4 2.4-.2 2.8.4.3.5 1.3 1 2.1 1 1.1 0 1.3-.6.8-2.2-.6-2-.5-2.1 1-.9.9.7 1.6 2.6 1.6 4.2 0 3.2 1.7 3.9 2.7 1.1.6-1.4.8-1.3 1.4.8.6 2.3.7 2.3.8-.8.1-3.9 1-4 4.1-.7 1.4 1.5 3 2.3 4 2 1-.3 2.3.1 3 1 .7.8 1.9 1.5 2.7 1.5.7 0 1.6.7 1.9 1.5.7 1.8 10.7 2.1 15 .5 2.3-.9 3.1-.7 5 1.1 1.3 1.2 2.1 2.5 1.9 3-.3.4.7.9 2.2 1.1 2.3.2 2.9 1 3.6 4.2.7 2.6.6 4-.2 4.5-.7.5-.1 1.7 1.8 3.5 1.8 1.7 3.1 2.4 3.5 1.7 1.1-1.7 4-1.3 5.9.9 2.6 3.1 3.6 2.4 2.6-1.8-.6-2.7-.4-4.1.5-5.1 2-2 3.9-.5 2.6 2-.8 1.4-.7 2.5.5 4.1 1.5 2.2 2.1 4.8.9 3.5-.4-.3-2.1 0-4 .8-2.3.9-3.4 1-3.7.2-.2-.7-1-.8-2.3-.2-1 .5-2.8.9-3.9.9-1.8.1-2 .7-1.8 5.1.3 6.6 2.3 16.5 3.4 16.5.5 0 .9 1.4.9 3.2 0 3 0 3.1 2 1.3s2-1.7 2 .8c0 1.7-.7 2.8-2 3.2-1.1.3-2 1.3-2 2.1s-1 1.4-2.2 1.4c-1.6 0-1.9.3-1.1 1.1.8.8 1.7.8 3.2 0 1.1-.6 3-1.6 4.1-2.1 1.2-.6 2-.6 2-.1s-.5 1.1-1.1 1.3c-.8.3-.8 1 .2 2.6 1.1 1.9 2 2.2 4.5 1.7 2.4-.4 3.3-.1 3.8 1.1.4.9.9 1.4 1.3 1.1.3-.3 1.8 0 3.4.8 1.5.8 3 1.5 3.4 1.5.3 0 .5-31.7.5-70.5V0H348.7l1.9 2.2zm6.9 3.8c-.3.5-1.1 1-1.6 1-.6 0-.7-.5-.4-1 .3-.6 1.1-1 1.6-1 .6 0 .7.4.4 1zm215.2 77.2c-.3.7-.5.2-.5-1.2s.2-1.9.5-1.3c.2.7.2 1.9 0 2.5zM344 6.5c0 .8.7 1.5 1.6 1.5 1.4 0 1.4-.3.4-1.5-.7-.8-1.4-1.5-1.6-1.5-.2 0-.4.7-.4 1.5zM340.2 60.2c-1.6 2-5 17.2-9.3 41.8-2.2 12.4-5.2 28.8-6.8 36.5-1.5 7.7-2.5 14.4-2.1 14.8.4.4 1.9.3 3.5-.3 1.5-.6 3-.8 3.3-.6.3.3-.7 1-2.2 1.6-1.5.5-4.9 2.8-7.4 4.9-3.8 3.1-5.3 3.8-8.2 3.5-1.9-.2-14.3-3.5-27.5-7.5-38.1-11.3-41.5-12.2-42.2-11.5-.3.3-.4.8-.2 1 .2.2 12.3 5.1 26.9 10.9 30.5 12.2 34.4 14 31.6 14.5-1.5.3-1.6.6-.5 1.3 1.2.7 1.2 1.2.1 2.9-.7 1.1-1 2.5-.7 3 .4.6-.1 1.3-.9 1.6-1.1.4-1.3 1.1-.5 3.1.6 1.6.5 3.1-.2 4.5-1 1.8-.6 1.7 3.6-.7 6.1-3.6 6.7-2.7 1.1 1.6-2.5 1.9-4.7 4.4-5 5.5-.3 1.2-2.1 4.5-4 7.2-3 4.5-5.6 12.6-4.4 13.7.2.3 2.1-.5 4.2-1.6 7.9-4.2 8.5.3 1.6 11.7-2.2 3.6-4 7.9-4 9.4 0 5.5 8.7 6.9 16.9 2.6 6.7-3.6 20.1-22.2 23.6-32.7 1-2.8 1.9-4.8 2.2-4.6 1 1.1-1.9 12.2-3.7 14.2-1.2 1.2-1.8 2.9-1.5 3.7.4.9-.1 2.2-1.2 2.9-1 .8-4.5 5.2-7.8 9.9-4.7 6.9-5.2 7.9-2.6 5.5 4.8-4.3 10.3-12.1 15.2-21.1 4.5-8.6 6.7-17.7 6.7-28.4 0-3.4.3-6.4.7-6.8.3-.4 5-1.2 10.3-1.8 5.7-.7 7.8-1.2 5.2-1.2-2.5 0-6.9.3-9.8.7-2.9.4-4.9.4-4.4-.1.9-.9 19.4-2.8 57.2-5.9 14.6-1.1 26.7-2.3 26.9-2.5.2-.2.2-.6-.1-.9-.2-.3-18.6 0-40.7.6s-40.9.8-41.7.5c-1-.4-1.4-2.2-1.4-6.4 0-6.8-1.8-9.2-6.9-9.2-3 0-3.2-.1-2.7-3.3.8-4.7 5.1-35.7 8.6-62.7 1.7-12.9 3.3-24.3 3.6-25.3.6-2-.9-2.3-2.4-.5zm-24 111.7c-.5.3-1.2 1.6-1.6 2.7-.4 1.2-1.4 2.8-2.4 3.7-1.6 1.5-1.7 1.3-1.8-2.2-.1-3.2.3-4 2.5-4.8 2.6-1 5.1-.6 3.3.6zm-7.2 9.5c0 .3-.4.8-1 1.1-.5.3-1 .1-1-.4 0-.6.5-1.1 1-1.1.6 0 1 .2 1 .4z"/><path d="M498 64c-.9.6-1 1-.3 1 .6 0 1.5-.5 1.8-1 .8-1.2.4-1.2-1.5 0zM502.8 67c.2 1.6.6 3 .8 3 .2 0 .4-1.4.4-3 0-1.7-.4-3-.8-3-.5 0-.7 1.3-.4 3zM561.5 81c-.3.5-.1 1 .4 1 .6 0 1.1-.5 1.1-1 0-.6-.2-1-.4-1-.3 0-.8.4-1.1 1zM51.1 174.7c1.5 1.8 6.2 4 23.4 11 6.1 2.5 17.1 7 24.5 10 7.4 3.1 14.3 5.6 15.3 5.5.9 0 1.7.3 1.7.8 0 .4 1.9 1.5 4.3 2.3 2.3.8 12.5 4.7 22.5 8.5 10.1 3.9 19.1 6.8 19.9 6.5.8-.3 2.6.3 4.1 1.3 1.5 1.1 5.4 3 8.7 4.3 3.3 1.3 6.5 2.9 7 3.5.6.6 2.9 2 5.3 3.1 3.5 1.5 4.7 1.6 6.3.7 3.6-2.3 5.5-1.4 5 2.4-.2 1.6 5.5 3.5 8.5 2.9 1.3-.3 3.5-.7 4.9-1 1.4-.3 2.5-.1 2.5.5 0 .5-1.2 1-2.7 1.1-2.5 0-2.4.2 1.2 1.5 2.2.8 5.4 2.1 7 2.8 6.9 3.2 24 9.9 25.2 9.9.7 0 1.3.4 1.3.9s.5.6 1.1.3c.6-.4.8-1.4.5-2.2-.3-.8-.1-1.1.4-.8.6.3 1 .1 1-.5 0-.7.8-.9 2-.5 1.3.4 2 .2 2.1-.7.1-.7.2-1.9.3-2.7.1-1.8 4.6-3.5 4.6-1.8 0 .7-.5 1.8-1.1 2.4-.8.8-.7 1.1.2 1 .8 0 2.4.1 3.7.1 2.2.2 2.2.3.7 1.9-1.6 1.6-1.6 1.7.1 3 1 .7 3.2 1.3 4.8 1.4 1.7 0 4 .2 5.1.4 1.1.2 4 .7 6.5 1 2.5.4 4.8 1.2 5.2 1.8.5.8.8.9.8.1s1.7-.8 5.8-.2c6.7 1.1 13.6.4 16.9-1.7 1.8-1.2 2.3-1.3 2.3-.2 0 .7-.5 1.8-1.2 2.5-2.1 2.1-.2 2.3 9.3.8 11.5-1.8 17.6-2.2 18.5-1.3.4.4.3.7-.2.7s-5.2.6-10.4 1.4c-5.2.8-12 1.7-15 2.1-3 .4-5.9 1.1-6.5 1.7-.7.7.3.8 3 .4 2.2-.3 12.3-1.3 22.5-2.1 10.2-.9 19.3-1.8 20.3-2.1 3.3-1 1.3-3.1-2.5-2.5-.5 0-.8-.6-.8-1.4 0-1.1 1.1-1.5 3.8-1.5h3.8v4.5c.1 2.5-.3 4-.7 3.4-.5-.9-1.2-.8-2.4.5-1.6 1.6-1.6 1.8.1 3 1.7 1.3 1.7 1.4-.4 2-1.2.4-2.2 1.4-2.2 2.3 0 1-.6 1.3-1.6.9-2.2-.9-8.7 5-9.5 8.6-.4 1.5-.4 2.8-.2 2.8s2.4-1.3 4.8-3c2.4-1.6 5-3 5.7-3 1.3 0 4.8 5.9 4.8 8 0 1.7-3.6 1.1-5.5-1-2.1-2.4-3-2-4.4 2.1-1.1 3.1-1 3.1 1.9 2.7 3.3-.5 3.8.3 1.5 2.2-2.8 2.3-1.8 4 2.5 4 5.4 0 9.3-2.1 11.9-6.6 1.2-2 2.5-3.4 2.8-3 .9.9 3.3-6.3 3.3-10.2 0-2.3-.8-4.2-2.8-6.1-2.4-2.4-2.6-3.2-1.8-5.9.7-2.5 1.5-3.3 4-3.7 1.7-.2 20.9-2.1 42.6-4.1 40.1-3.6 53.4-5 49.2-5.3-1.3 0-2-.6-1.7-1.1.9-1.4-1.3-1.3-22.5 1-20.3 2.2-26.9 2.5-25.5 1.1.6-.4 10.2-1.6 21.5-2.5 11.3-1 22.4-2 24.8-2.2 2.6-.3 4.2-.1 4.2.6 0 .5.9 1 2.1 1 1.1 0 1.7.4 1.4 1-.9 1.4.2 1.3 28-2 32.2-3.9 31.5-3.8 31.5-5.7 0-1.3-.8-1.5-4.2-1-2.4.3-7.4.8-11.3 1.1-3.8.3-.6-.3 7.3-1.4 7.8-1.1 15.9-2.4 17.9-2.9 2-.6 4-.8 4.5-.5.4.3.8 0 .8-.5 0-1.3-2.1-1.3-8 0-8.5 1.8-42.5 4.9-48.5 4.4-7.4-.7-24.5.9-25.4 2.3-.8 1.4-47.1 5.4-48.5 4.3-.6-.5-2.7-1.1-4.6-1.5-2.3-.4-3-.3-2.1.3 1.2.8 1 1.2-1 2-3.4 1.4-30.2 3.2-31.3 2-1.3-1.2-4.3-1.2-4.8 0-.1.5-2.3.6-4.8.2-4.2-.6-14.5-.2-35 1.4-5.5.4-8 .3-7-.3 1.8-1.1 17.6-2.2 42.4-2.8 9.9-.2 18.2-.6 18.4-.9.3-.3 3.7-.5 7.5-.5 3.9 0 6.8-.3 6.4-.6-.6-.6-61.6 1.2-71.9 2.2l-5.8.5v-3.5c0-6.6-.7-6.8-6.8-2.2-14.8 11.2-20.7 11.2-29.8 0-2.1-2.7-5-5.8-6.3-6.9-2.2-2-2.3-2.2-.6-5.5 3.4-7.2 4-8 6.2-8 1.7 0 2.5-1 3.8-5 1.1-3.2 1.3-5.5.7-6.6-.7-1.3-1.6-.3-4.5 5-2.1 3.7-3.7 7-3.7 7.4 0 1-7.4 8.9-7.7 8.2-.1-.3-.4-.2-.7.1-.4.3.1 1.2.9 1.9 1.4 1.2 1.2 1.7-1.7 4.7-3.1 3.2-7 4.3-8.3 2.4-.3-.6-1.3-.9-2.3-.9-.9 0-5.5-.9-10.1-2.1-4.6-1.2-8.5-2-8.7-1.8-.2.2 2.5 1.2 6.2 2.2 5.6 1.5 8.7 3.6 7.3 5-.2.2-5.1-1.5-10.9-3.7-5.8-2.2-12.4-4.4-14.8-4.9-2.4-.5-5-1.5-5.8-2.4-1.9-1.9-1.9-1.9 5.1.5 3.2 1.1 6.3 2 6.9 1.9.6 0-2.7-1.4-7.4-3-7.4-2.6-13.7-4-8.5-2 1.5.6.8.8-2.2.8-2.4 0-4.3-.3-4.3-.8 0-.4-.9-1.1-2-1.4-1.1-.4-1.8-1.1-1.5-1.6.4-.5 0-.9-.9-.9-.8 0-2.3-.3-3.3-.6-1.3-.4-1.5-.3-.4.4 1 .7 1 1.1.1 1.7-.7.4-1.9 0-2.8-1-1-1-1.1-1.5-.4-1.1.6.4 1.2.4 1.2-.1 0-.4-2.8-.9-6.3-1-7.4-.3-18.8-4.1-19.4-6.4-.6-2.1-4.2-3.2-5.9-1.8-.8.6-2.9.3-6.5-1.2-3-1.1-12.1-4.5-20.4-7.5-8.2-3-15.8-6.4-16.8-7.5-1.3-1.4-2.7-1.9-4.5-1.5-2.9.6-14.7-3.5-14.6-5 0-.5-1.8-1.4-4-2-6.3-1.7-35.6-12.9-40.1-15.3-5-2.7-7.4-2.8-5.4-.4zm425.4 66.4c-2.2.4-6.5.7-9.5.7l-5.5-.1 5-.7c2.8-.4 7-.7 9.5-.7l4.5-.1-4 .9zm17 .9c-2.7.5-6.6.8-8.5.8-3.2-.1-3.1-.2 1-.8 2.5-.4 6.3-.7 8.5-.7 3.8 0 3.7 0-1 .7zm-241 2c.3.6-.1.7-.9.4-1.8-.7-2.1-1.4-.7-1.4.6 0 1.3.4 1.6 1zm222.5.1c-3 .5-6.7 1.1-8.2 1.4-1.6.2-2.8 0-2.8-.5 0-1 4.3-1.7 11.5-1.7l5-.1-5.5.9zM245 249c0 .5-.2 1-.4 1-.3 0-.8-.5-1.1-1-.3-.6-.1-1 .4-1 .6 0 1.1.4 1.1 1zm159 1.9c2 .1 3 .5 2.5 1-1.3 1.1-8.3 2.1-8.7 1.2-.2-.4-6.5-.2-14.1.4-7.7.5-14.1.7-14.3.3-.3-.5.1-.8.8-.9.7 0 6.7-.6 13.3-1.3 6.6-.7 13.1-1.1 14.5-1 1.4.1 4.1.3 6 .3zm-37.3 3.7c-.3.3-1.2.4-1.9.1-.8-.3-.5-.6.6-.6 1.1-.1 1.7.2 1.3.5zM359 256c0 .5-.7 1-1.5 1s-1.5-.5-1.5-1c0-.6.7-1 1.5-1s1.5.4 1.5 1zm-5.5 35c.3.5.1 1-.4 1-.6 0-1.1-.5-1.1-1 0-.6.2-1 .4-1 .3 0 .8.4 1.1 1zM56.2 181.7c.3 1.8 5.6 4.2 49.2 22.4 22.5 9.4 40.3 16.6 61.1 24.6 5 1.9 11.2 4.3 13.9 5.4 4.8 1.9 6.6 1.8 6.6-.4 0-1.3-21.2-9.7-24.2-9.7-1 0-1.8-.4-1.8-.8s-2.4-1.6-5.2-2.7c-2.9-1-12.4-4.7-21.1-8.2-8.6-3.4-16.6-6.3-17.7-6.3-1.1 0-2.3-.7-2.6-1.5-.4-.8-1.2-1.5-1.8-1.5-.7 0-6.4-2.2-12.7-4.9C76.7 188.2 57 180 56.4 180c-.3 0-.4.8-.2 1.7zM287.5 194c-.3.5-.1 1 .4 1 .6 0 1.1-.5 1.1-1 0-.6-.2-1-.4-1-.3 0-.8.4-1.1 1z"/><path d="M206.8 227.7c.7.3 1.6.2 1.9-.1.4-.3-.2-.6-1.3-.5-1.1 0-1.4.3-.6.6zM191.5 240.1c-.4 1.7-2.3 4.8-4.2 6.7-2.9 2.9-3.4 4-2.9 6.4.3 1.6 1.5 4.2 2.6 5.8 1.1 1.5 2 3 2 3.2 0 .2-1.6 2.1-3.5 4.3-2 2.1-3.4 4.3-3.2 4.9.5 1.6 7.4 1.9 10.7.6 3.3-1.4 5.4-5.2 3.8-6.8-.8-.8-.6-1.3.6-1.8 1.1-.4 2.2-.1 2.7.7.5.8.9.9.9.4.1-.6.3-4 .6-7.8.6-6.6.5-6.8-2.6-9.7-1.8-1.6-2.8-3.4-2.5-4.1.6-.8.2-.8-1.2 0-1.8.9-2 .7-2.1-2-.1-4.3-.9-4.6-1.7-.8zM197.6 238.7c-.4.9-.5 1.7-.4 1.8.2.1 8.2 3.2 17.8 6.9 9.6 3.8 18.1 7 18.8 7.3.6.3 1.2-.1 1.2-.9 0-1.3-16.9-9.1-32.2-14.9-4.2-1.7-4.7-1.7-5.2-.2z"/><path d="M180.1 264.3c-1 2.6-.9 2.9 1.2 2.1 2.2-.8 2.9-3.1 1.1-3.8-.9-.4-1.8.3-2.3 1.7zM287.5 263c-.3.5.1 1 .9 1 .9 0 1.6-.5 1.6-1 0-.6-.4-1-.9-1-.6 0-1.3.4-1.6 1zM242.5 263.9c-.3.5-.1 1.2.5 1.6.5.3 1-.1 1-.9 0-1.8-.6-2.1-1.5-.7zM264 267c0 .5.9 1 2 1s2-.5 2-1c0-.6-.9-1-2-1s-2 .4-2 1zM293 269.9c0 .5.9.7 2 .4 1.1-.3 2-.7 2-.9 0-.2-.9-.4-2-.4s-2 .4-2 .9zM519.6 309.5c-.3.8-1.4 1.5-2.4 1.5-1.1 0-3.4 1.6-5.3 3.5s-4.6 3.7-6 4c-3.3.7-7.4 4.9-6.4 6.5 1 1.6 10.1.6 14.1-1.5 1.6-.8 3.7-1.5 4.7-1.5 1.9 0 17.3-5.2 20.6-6.9 2-1.1 2-1.3.6-4.1-1.5-3-1.6-3-10.4-3-7 0-9 .3-9.5 1.5zM548.5 321.6l-2.6 2.4h2.8c3.1-.1 8.1-2.4 6.7-3.2-3-1.6-4.5-1.5-6.9.8zM451.7 327.6c-4.4 1.6-12.9 6.3-13.8 7.7-.4.5-1.2.6-1.9.2-.9-.5-1.1-.4-.6.3.4.7.3 1.2-.3 1.2-1.8 0-5.2 4.3-4.2 5.3.6.6.5 1.9-.2 3.4-1.4 3.1.2 4.3 6.1 4.3 2.9 0 6.2-1 10.2-3.1 6.1-3.2 16-5.2 18.2-3.7 2.6 1.6 13.1 0 16.6-2.5 2.8-2.1.4-7.8-3-7-1 .3-2.2-.4-3-1.6-1.4-2.3-3.9-2.7-6.8-1.1-2.5 1.4-5.3.2-4.7-2.1.8-3.2-5.6-3.8-12.6-1.3zM566.4 335.4c-4.4 2-5 4.2-1.3 5.5 1.6.5 2.9 1.7 2.9 2.6 0 1.4 1 1.6 8.3 1 4.5-.4 8.6-1.1 9.2-1.6.5-.5 3-.9 5.6-.9 4.7 0 7-1.2 4.8-2.5-2.6-1.7-12.9-1.7-17-.1-4.5 1.8-5.9 1.5-4-.8 1-1.1.7-1.7-1.1-3-2.7-1.9-3.4-1.9-7.4-.2zM550.8 339.7c.7.3 1.6.2 1.9-.1.4-.3-.2-.6-1.3-.5-1.1 0-1.4.3-.6.6zM593.5 416c-.9 1.5 1.2 3 4.3 3 1.3 0 2.2-.6 2.2-1.5 0-.8-.6-1.5-1.4-1.5-.8 0-2.1-.3-2.9-.6-.8-.3-1.8 0-2.2.6zM585.5 417.3c-1 .8-1.4 1.7-.8 2 1.4.9 6.6-.7 7.1-2.1.5-1.6-4-1.5-6.3.1zM584.8 428.6c-.2.2-5.1.4-10.8.5-11 .1-13.4.5-12.4 2.1.3.5-1.1.8-3.4.7-2.2-.2-4.7.2-5.4.9-1.1.9-1.7.9-2.6 0-.9-.9-1.2-.6-1.2 1.2-.1 2.8-2.1 6-3.9 6-.6 0-1.1-.7-1.1-1.6 0-1.2-.5-1.3-2.2-.7-1.3.4-3.5.7-5 .7-2.3-.1-2.5.1-1.3 1s.9 1.1-1.6 1.3c-1.7.1-3.7.8-4.5 1.4-1.1.9-1.4.9-1.4-.1 0-.6-.6-1-1.2-.8-.7.3-1.3 1.3-1.3 2.4 0 1.5-.8 1.9-4 2-4.4.1-9.5 1.9-9.5 3.3 0 .5-.9 1.1-2.1 1.4-1.2.3-1.8 1-1.4 1.6.6 1-1.6 1.5-5.5 1.2-.8 0-2.2.4-3 .9-1.3.9-1.2 1.2.4 2.5 2.6 2 .6 4.6-2.2 2.9-1-.7-3-.8-5.2-.3-5.7 1.3-14.4 1.7-16.1.9-.8-.5-2.1-.5-2.8-.1-.7.5-3.1.4-5.4-.1-7-1.5-19.8-.9-20.5 1-.2.7-1.6 1.2-3 1.2-1.5 0-4 .8-5.7 1.8-2.3 1.5-5.1 1.9-12.8 1.9-8.9.1-12.7 1-12.7 3.2 0 .3 2.8.6 6.3.6 3.4 0 7.1.6 8.2 1.2 1.6 1 .4 1.1-6.5.8-4.7-.2-10.1-.7-12.1-1-4.3-.7-17.7 3.3-20.9 6.3-1.4 1.3-3.3 1.8-6.3 1.7-5.1-.2-15.4-2.3-18.4-3.8-1.6-.7-3-.7-4.8.1-1.4.6-3.1.9-3.9.6-.8-.3-2.4-.1-3.5.5-2.5 1.4-3.7-.2-1.6-2.3 1.4-1.3 1.4-1.6-.3-2.5-2.3-1.2-12-1.7-15-.7-1.4.4-2.8.3-3.6-.3-.9-.8-2.1-.8-3.7-.2-1.3.5-1.8 1-1.1 1 2.8.2.9 2.1-2 2.1-1.8 0-3.9.4-4.7.9-2.9 1.8 6.8 3.4 16.7 2.7 5-.4 9.2-.3 9.2.1 0 1.5-2.3 3.3-4.2 3.3-1 0-2.6.8-3.6 1.7-2.3 2.4-5.6 2.7-7.2.8-.8-.9-2.1-1.3-3.6-.9-1.6.4-2.6.1-3-.9-.3-1-2.6-1.8-6.5-2.2-6.2-.7-8.2-2.5-2.7-2.5 3 0 3.1-.1 1.6-1.6-1.1-1.2-2.5-1.4-4.7-.9-2.8.6-4.4 2.5-2.1 2.5.6 0 1 .4 1 .8 0 .5-5.3 1.6-11.7 2.6-6.5.9-13 2.1-14.5 2.5-2.2.7-2.8.6-2.8-.5 0-1.9-1.4-1.8-3.1.2-1.1 1.4-2.5 1.5-7.9.9-3.6-.4-7.6-.6-9-.5-1.4.1-3.3.3-4.2.3-1 .1-1.8.5-1.8.9s-.5.8-1.2.8c-.6 0-.1-1.1 1.1-2.4 3.1-3.3 1.9-5.1-1.9-3.1-1.6.8-3.7 1.5-4.7 1.5-1.5 0-1.6.2-.3 1 1.3.9 1.3 1.1 0 2-.8.5-2.2 1-3 1.1-.8.1-1.9.2-2.5.4-.5.1-1.7.3-2.5.4-.9.1-.5.6 1 1.2 2.3 1 2.4 1.1.8 2.3-2.8 2.1-2.2 2.5 4 2.8 5.6.3 5.6 1-.1 2.3-1.9.4-2.7 1.1-2.3 2 .3.9 0 1.2-1 .8-.7-.3-1.4-1.2-1.4-1.9 0-1.1-1.1-1.4-3.7-1.4-3.6.2-8.2-.5-11.1-1.5-2.5-.9-1-2.4 3.1-3 3.6-.6 4.3-1.1 4.5-3 .2-2.8-1.5-4.2-3.1-2.6-1.4 1.4-5.4 1.4-6.2.1-.4-.6-1.2-.7-1.8-.3-1.7 1.1-11.2 2.4-19 2.7-3.8.1-7.2.7-7.5 1.3-1 1.4-7.2 3.4-7.2 2.2 0-.5-1.8-.9-4.1-.9-3.7 0-3.9-.1-2.5-1.6.9-.8 1.6-2.1 1.6-2.7 0-.8-.3-.8-.8-.2-1.3 1.8-5.1 3.5-7.9 3.6-1.6 0-2.2.3-1.5.6 2.4 1 1.2 3.2-2.1 3.6l-3.2.4 3.3.1c2.4.2 3.2.7 3.2 2.1 0 2.5-1.6 3.6-2.4 1.5-.4-1-1.3-1.3-2.6-.9s-2.2.1-2.6-.9c-.4-1.1-1.1-1.3-2.3-.7-.9.6-4.6.9-8.1.8-4.4-.1-6.5.2-6.8 1.1-.6 1.8-3.2-.4-3.2-2.7 0-1.3-.9-1.5-5.2-1.2-2.9.3-8.8.4-13 .3-5.6-.1-7.7.2-7.5 1.1.1.7-.8 1.1-2.3.9-1.5-.1-3 .5-3.8 1.5-1 1.4-1.6 1.5-3.2.5-2-1.2-5-.7-5 .9 0 .5-.4.9-.9.9s-.8-.8-.7-1.8c.1-1.5-1.1-1.7-9.7-2-5.7-.2-10.4.1-11.1.7-.7.6-1.7.6-2.6.1-.8-.5-2.3-.7-3.2-.4-1.2.3-1.8 0-1.8-1 0-1.3-1.9-1.4-13.2-1-7.2.2-13.3.6-13.5.8-.2.2 2 .6 4.8.9 5.7.7 6.8 1.2 5.3 2.7-.9.9-10.4 3.2-12.9 3.2-.5 0-2.7-.2-4.8-.3-3.8-.2-3.8-.3-1.5-1.5 1.9-1.1 2-1.3.5-1.4-1 0-1.5-.4-1.2-1 2-3.2-28.2-3.1-32.1.1-.8.7-3 .9-5.4.6l-4.1-.5.3 9.1.3 9.2 12.5-.2c6.9-.1 18.8-.5 26.6-.9 10.9-.4 14.6-.3 16.2.7 1.7 1.1 2.4 1.1 3.4.1.7-.7 3.5-1.1 6.8-1.1 4.6.1 5 .3 2.5.9-2.3.6-1.2.8 4.3.9 4.2.1 7.2-.3 7.2-.9 0-.6 1.7-.9 3.8-.9l3.7.2-3.5.7c-2.3.5.6.8 8.5.9 8.8 0 11.6-.2 10.5-1-1.2-.9-1.1-.9.5-.3 1.1.4 8.5.8 16.5 1 8 .1 18.8.3 24 .4 5.2.1 10.2-.1 11.1-.5 1-.3 2-.2 2.3.4.5.7 8.4 1.1 23.1 1 14.3 0 23.2.4 24.5 1.1 1.3.7 2.6.7 3.8.1.9-.5 7.3-.9 14.2-.9 6.9-.1 11.6.3 10.6.7-1.1.4-1.5 1-1 1.3.5.2 13.3.6 28.4.7 20.1.1 27.8.5 28.5 1.4 1.5 1.8 2.4 1.9 21 1.7 19.4-.1 64.7 1.1 64.2 1.7-.3.2-11.2.4-24.3.4-14.2 0-23.1.4-21.9.9 1.7.7 1.5.9-1.2.9-3.7.1-5.6 2.1-2.1 2.2 1.3 0 5.9.2 10.3.3 4.4.2 10.6.4 13.8.5 3.1 0 5.7.5 5.7 1s-5.1.8-11.2.6c-6.2-.1-13 0-15 .3-6.4.8-4.2 2 3 1.7 3.7-.2 10.7.1 15.6.6 5.2.6 9.2.6 9.5.1 1-1.5 7.2-1.2 7.7.3.4.9 1.8 1.4 3.7 1.3 10.2-.6 33 .3 31.7 1.2-.8.5-3.4 1-5.7 1-2.4 0-4.3.4-4.3 1 0 1 7.4.5 9.1-.6.5-.3.9-.1.9.4s5.1 1.3 11.3 1.7c6.1.4 13 .9 15.2 1.1 2.2.1 8.5.6 13.9.9 9.2.7 14.3 2.4 11.7 3.9-.5.4-1.6 0-2.4-.8-1.2-1.2-3.4-1.4-10.3-1-4.9.3-11 .5-13.6.4-2.7 0-4.8.3-4.8.8 0 .8 4.3 1.4 9.7 1.4 1.3 0 2 .4 1.7.9-.3.5-2.5.9-4.9.9-2.4 0-4.7.4-5 1-.3.5-1.7 1-3.1 1-1.3 0-3.2.9-4.1 2-1 1.1-2.3 2-3 2-2.3 0-1.4 2 1 2.1h2.2l-2.2 1.1c-3.5 1.7-2.7 2.7 1.4 2.1 2.2-.4 3.4-.2 3 .4-.3.5-3.2 1.1-6.4 1.2-3.2.1-5.9.6-6.1 1.2-.5 1.4-2.9 1.1-3.5-.5-.4-1.1-1.6-1.2-5.3-.5-6.4 1.2-7.1 2.3-.9 1.6 3.2-.4 4.3-.3 3 .3-1.1.5-3.2.9-4.7.9-1.6.1-2.8.4-2.8.8 0 .5 3.1.7 7 .5 4.6-.2 7 0 7 .7 0 .6-.9 1.1-2.1 1.1-1.1 0-3 .5-4.1 1.1-1.2.6-4.4 1.3-7.2 1.6-2.8.2-5.3.8-5.4 1.4-.5 1.4-2.9 1.1-3.5-.5-.4-.9-2-1.4-4.3-1.4-2.4 0-3.2.3-2.3.8 2.2 1.4.4 2.2-6.3 2.6-4.4.3-5.8.1-4.8-.6 1.3-.8 1.3-1-.1-1-.9 0-2.4.9-3.4 2-1.8 2-7.2 2.9-6 1 .4-.6-1-.9-3.7-.9l-4.3.2 3.5.7c2.3.5 2.8.8 1.3.9-1.3 0-2.3.6-2.3 1.1 0 1.1 8.1.8 11.1-.5 1-.3 2-.2 2.3.4.4.6 1.2.8 1.9.6.7-.3 2.1.2 3.2 1 1.9 1.5 1.9 1.6.1 3.3-1.8 1.6-1.9 1.6-1.3 0 .5-1.3.1-1.8-1.1-1.8-1 0-2.3-.5-2.9-1.1-.8-.8-1.3-.8-1.7 0-.4.6-.2 1.1.4 1.1.6 0 .8.5.4 1.1-.3.6-1.7.9-3 .6-2.5-.4-3.4.8-1.1 1.6.6.2-.8.7-3.3 1.1-2.5.4-5.8 1-7.5 1.3l-3 .5 1.9-2.1c1.3-1.5 2.6-1.9 4-1.5 1.7.5 1.6.3-.6-1.5-3-2.4-4.6-2.8-2.8-.6 1.4 1.6.2 2-5.1 1.6-1.4-.1-6 .9-10.1 2.3-4 1.4-8.3 2.3-9.4 2-1-.3-3-.1-4.4.5l-2.5 1 2.5.2c1.4.1 2.9.1 3.4 0s2.7.1 4.9.5c3.3.5 3.7.8 2.3 1.6-1.1.6-2.2.6-3.2-.2-.9-.8-1.9-.9-2.6-.3-.7.5-3.8.8-6.8.7-7.2-.2-7.9-.4-5.5-1.4 1.3-.5.1-.7-3.5-.5-6.9.4-7.3.6-3 1.5l3.5.7-2.5 1.1c-2.1 1-1.4 1 3.9.5 4.7-.4 6.2-.3 5.7.6-.4.6-.1 1.1.8 1.1s1.6.5 1.6 1.1c0 .5-.8.9-1.7.8-1-.2-2.8.2-4 .9-1.9 1.1-2.3 1-2.3-.3 0-2.1-3-1.9-3 .2-.1 1.6-.2 1.6-1.3.2-1.2-1.6-2.3-1.5-6.2.1-1.1.5-3.6 1.1-5.5 1.4-3.1.4-3.2.4-1.2-.6 3.4-1.7 2.6-2.6-1.3-1.4-1.9.6-3.1 1.2-2.5 1.4 2.7.9-.4 1.8-4.2 1.3-2.4-.4-6.3-.6-8.8-.5-14.2.3-16.1.5-15.5 1.3.3.5 2.9.7 5.9.4 3.4-.4 5.6-.2 6 .6.4.6 1.7 1.1 2.9 1 2-.1 2-.2-.3-.9l-2.5-.8 2.7-.1c1.5-.1 3 .4 3.3.9.4.7 55.3 1 161.6 1H600V429.2l-4.7-.5c-5.7-.6-10-.6-10.5-.1zm-356.4 57.3c.7 1.1-8 2-10.9 1.2-1.3-.4-.5-.8 2.5-1.2 7.1-1 7.8-1 8.4 0zm35.9 2.5c.4.9-.3 1.6-1.6 2-2.7.7-3.3 0-1.7-1.9 1.6-1.9 2.6-1.9 3.3-.1zm-132.5 7.1c-.2.6-3.1 1-6.4 1-3.4 0-6-.4-5.7-.9.3-.4 2.5-.6 4.9-.2 2.5.3 4.6.1 4.9-.5.8-1.2 2.8-.7 2.3.6zm60.9 1.1c.9 2.7-12 2.6-13 0-.4-.9 1.3-1.2 6.1-1.2 3.9.1 6.7.6 6.9 1.2zM50 507.6c0 .3-.7 1.2-1.5 2-1.2 1.3-1.5 1.3-1.5.1 0-.7.3-1.7.7-2 .8-.8 2.3-.9 2.3-.1zm-42.3 4c-.3.3-1.2.4-1.9.1-.8-.3-.5-.6.6-.6 1.1-.1 1.7.2 1.3.5zm20 0c-.3.3-1.2.4-1.9.1-.8-.3-.5-.6.6-.6 1.1-.1 1.7.2 1.3.5zm6.6.1c-.7.2-2.1.2-3 0-1-.3-.4-.5 1.2-.5 1.7 0 2.4.2 1.8.5zm89.3 1.1c-1 .2-2.2 0-2.8-.6-.6-.6 0-.7 1.9-.4 2.1.5 2.3.7.9 1zm-48.9-.2c-.3.3-1.2.4-1.9.1-.8-.3-.5-.6.6-.6 1.1-.1 1.7.2 1.3.5zm24.6.1c-.7.2-1.9.2-2.5 0-.7-.3-.2-.5 1.2-.5s1.9.2 1.3.5zm67 1c-1.3.2-3.3.2-4.5 0-1.3-.2-.3-.4 2.2-.4s3.5.2 2.3.4zm28.4-.1c-.3.3-1.2.4-1.9.1-.8-.3-.5-.6.6-.6 1.1-.1 1.7.2 1.3.5zm51.1 2.1c-1.6.2-4 .2-5.5 0-1.6-.2-.3-.4 2.7-.4s4.3.2 2.8.4zm53.5 3c-.7.2-1.9.2-2.5 0-.7-.3-.2-.5 1.2-.5s1.9.2 1.3.5zm83.4 3.9c-.3.3-1.2.4-1.9.1-.8-.3-.5-.6.6-.6 1.1-.1 1.7.2 1.3.5zm-11.9 6.1c-1 .2-2.6.2-3.5 0-1-.3-.2-.5 1.7-.5s2.7.2 1.8.5zm84.5 13c-.7.2-1.9.2-2.5 0-.7-.3-.2-.5 1.2-.5s1.9.2 1.3.5zm4.4-.1c-.3.3-1.2.4-1.9.1-.8-.3-.5-.6.6-.6 1.1-.1 1.7.2 1.3.5zm-21.1 3.9c-1.6 1.6-4.6 2-4.6.7 0-1.5 1.3-2.2 3.7-2.2 2.2 0 2.3.2.9 1.5zm-8.6 5.9c0 1.1-1.9 1.5-2.5.6-.3-.5.1-1 .9-1 .9 0 1.6.2 1.6.4zm-10.1 4.5c-1.5.5-2.2-.6-1.4-1.9.6-.9 1-.9 1.6.1.5.8.4 1.5-.2 1.8zm7.1-.9c0 .5-.4 1-.9 1-.6 0-1.3-.5-1.6-1-.3-.6.1-1 .9-1 .9 0 1.6.4 1.6 1zm-18.3 9c-.1 1.2-.5 1.6-1 1.1s-.6-1.4-.3-2c1.1-1.6 1.5-1.3 1.3.9zm-27.7 6c0 .5-.9 1.5-2 2.2-3.3 2.1-2.3 2.8 3.5 2.7 3.1-.1 5.8.1 6.1.4.4.3-1.3.6-3.5.5-2.3 0-4.5.2-4.8.6-.4.3.5.6 1.8.6 2.3 0 2.3.1-.5 1.5-3.1 1.6-6.2 1.3-5.1-.5.4-.6-.6-1-2.4-1-1.6 0-3.3-.5-3.7-1.1-.5-.9.1-1 2.1-.5 2.5.6 2.7.5 1.6-.8-1.1-1.4-1.1-1.6.5-1.6 1.1 0 2.5-.9 3.2-2 1.3-2.1 3.2-2.7 3.2-1zm16 0c0 .5-.2 1-.4 1-.3 0-.8-.5-1.1-1-.3-.6-.1-1 .4-1 .6 0 1.1.4 1.1 1zm-6.7.7c-.7.2-1.9.2-2.5 0-.7-.3-.2-.5 1.2-.5s1.9.2 1.3.5zM376 580c0 .5-.9 1-2 1s-2-.5-2-1c0-.6.9-1 2-1s2 .4 2 1zm14.3-.3c-.7.2-1.9.2-2.5 0-.7-.3-.2-.5 1.2-.5s1.9.2 1.3.5zm-51.8 3.4c.4.6 1.7 1.4 2.9 1.9 1.9.8 1.8.9-.8.9-1.6.1-2.6-.2-2.3-.6.4-.3-.1-1.2-1.1-1.9-.9-.8-1.2-1.4-.5-1.4.6 0 1.5.5 1.8 1.1zm4.5-.1c0 .5-.5 1-1.1 1-.5 0-.7-.5-.4-1 .3-.6.8-1 1.1-1 .2 0 .4.4.4 1zm6.5 3c.3.5.1 1-.4 1-.6 0-1.1-.5-1.1-1 0-.6.2-1 .4-1 .3 0 .8.4 1.1 1zm-14 1c-.3.5-1.3 1-2.1 1s-1.2-.5-.9-1c.3-.6 1.3-1 2.1-1s1.2.4.9 1zm10.9 2.1c-.5.8.3 1 2.5.7 1.8-.3 3.4-.1 3.6.3.6.9-4.3 2.2-5.5 1.4-.4-.3-1.1.1-1.3.7-.4 1-.7 1-1.4.1-.6-.8-2.3-1.1-4.8-.7-7 1-11.5 1-11.5.2 0-.4-1-.8-2.1-.8-1.8 0-1.9.2-.9 1.5 1 1.2 1 1.5-.3 1.5-.8 0-2-.7-2.7-1.5-.7-.8-1.6-1.2-2.1-.9-.5.3-.9 0-.9-.6 0-.7 3-1 8.3-1 4.5 0 9.8-.4 11.7-.9 5.1-1.3 8.3-1.3 7.4 0zM280 598c0 .5-.5 1-1.1 1-.5 0-.7-.5-.4-1 .3-.6.8-1 1.1-1 .2 0 .4.4.4 1zm16.3.7c-.7.2-1.9.2-2.5 0-.7-.3-.2-.5 1.2-.5s1.9.2 1.3.5zm6.4-.1c-.3.3-1.2.4-1.9.1-.8-.3-.5-.6.6-.6 1.1-.1 1.7.2 1.3.5z"/><path d="M385.2 458c-10.3 2.9-10 4.4.7 3.4 7.4-.7 10.9-2.3 9.7-4.2-.9-1.5-2.7-1.4-10.4.8zM334.3 461.1c-.6.6-3.4 1.2-6.4 1.5-6.9.6-8.6 1.1-8.6 2.7 0 .9 1.7 1.1 7.1.5 3.9-.4 8.3-.7 9.9-.7 1.7-.1 2.7-.6 2.7-1.6 0-2-3.4-3.7-4.7-2.4zM346 467c0 .5 1.4 1 3.1 1 1.7 0 2.8-.4 2.4-1-.3-.6-1.7-1-3.1-1-1.3 0-2.4.4-2.4 1zM298 476.7l-2.5 1.5 2.5-.6c1.4-.3 3.3-.6 4.3-.6s1.5-.5 1.2-1c-.8-1.3-2.5-1.1-5.5.7zM175 480.4c0 .9 5 1.2 6.2.5.8-.6-.1-.9-2.4-.9-2.1 0-3.8.2-3.8.4zM152.8 483.7c.6.2 1.8.2 2.5 0 .6-.3.1-.5-1.3-.5-1.4 0-1.9.2-1.2.5zM157.8 483.7c.7.3 1.6.2 1.9-.1.4-.3-.2-.6-1.3-.5-1.1 0-1.4.3-.6.6zM165.5 486c-1.1.5-3.6.9-5.5 1.1-2.2.1-.7.5 3.9 1.1 7.9 1 9.1.7 7.1-1.7-1.4-1.7-2.5-1.8-5.5-.5zM188.5 486c-.3.5-.1 1 .4 1 .6 0 1.1-.5 1.1-1 0-.6-.2-1-.4-1-.3 0-.8.4-1.1 1zM125.7 486.7c-1.5 1.4-.5 2.1 4.2 2.7 5 .7 8.1.1 8.1-1.6 0-.5-.4-.6-1-.3-.5.3-1 .1-1-.4 0-1.2-9.2-1.5-10.3-.4zM42.8 513.7c1.2.2 3 .2 4 0 .9-.3-.1-.5-2.3-.4-2.2 0-3 .2-1.7.4zM282.3 520.7c.9.2 2.3.2 3 0 .6-.3-.1-.5-1.8-.5-1.6 0-2.2.2-1.2.5zM299.8 526.7c.6.2 1.8.2 2.5 0 .6-.3.1-.5-1.3-.5-1.4 0-1.9.2-1.2.5zM313 527c-1.2.8-1.1 1 .8 1 1.2 0 2.2-.5 2.2-1 0-1.3-1.1-1.3-3 0zM320.5 531c-.3.5.3 1 1.4 1 1.2 0 2.1-.5 2.1-1 0-.6-.6-1-1.4-1-.8 0-1.8.4-2.1 1zM359 533c0 .6.7 1 1.5 1s1.5-.2 1.5-.4-.7-.6-1.5-1c-.8-.3-1.5-.1-1.5.4zM381 536.4c0 .2.7.7 1.6 1 .8.3 1.2.2.9-.4-.6-1-2.5-1.4-2.5-.6zM404 553c0 1.1.6 2 1.3 2 .7 0 1.3-.9 1.3-2s-.6-2-1.3-2c-.7 0-1.3.9-1.3 2zM402.4 558.1c-.3.5 1.4.9 3.7.9 2.3 0 3.9-.3 3.5-.7-1.1-1.1-6.5-1.2-7.2-.2zM372.5 562c-3.4.9-3.2 1.2.6 1.4 1.4.1 3.1-.4 3.8-1.1 1.4-1.5.5-1.6-4.4-.3zM379 561.9c0 1.7 1.8 2.1 2.4.6.3-.9 0-1.5-.9-1.5-.8 0-1.5.4-1.5.9zM383.5 562c.4.6 1.1.8 1.6.5 1.4-.9 1.1-1.5-.7-1.5-.8 0-1.2.5-.9 1zM333.5 563c.3.5.8 1 1.1 1 .2 0 .4-.5.4-1 0-.6-.5-1-1.1-1-.5 0-.7.4-.4 1zM364.8 562.7c.6.2 1.8.2 2.5 0 .6-.3.1-.5-1.3-.5-1.4 0-1.9.2-1.2.5zM329 563.4c0 .2.9.6 2 .9 1.1.3 1.8.1 1.4-.4-.5-.9-3.4-1.3-3.4-.5zM387 564c0 .5.5 1 1.1 1 .5 0 .7-.5.4-1-.3-.6-.8-1-1.1-1-.2 0-.4.4-.4 1zM343.5 568.9c-.3.5-.2 1.2.3 1.5.5.3.9-.1.9-.9 0-1.7-.3-1.9-1.2-.6zM331.5 571c-.3.5.1 1 .9 1s1.8-.5 2.1-1c.3-.6-.1-1-.9-1s-1.8.4-2.1 1zM310 573.7c0 1.2.3 1.4.8.7.4-.7 1.8-1.4 3.2-1.7 2.1-.4 2-.4-.7-.6-2.5-.1-3.3.3-3.3 1.6zM218.7 574c1.3.5 4.7.6 8 .1l5.8-.9h-8c-5.7-.1-7.4.2-5.8.8zM242.3 574.2c1.8 1.1 8.7 1 8.7-.2 0-.6-2.2-.9-5-.8-2.7.1-4.4.6-3.7 1zM258.8 573.7c.7.3 1.6.2 1.9-.1.4-.3-.2-.6-1.3-.5-1.1 0-1.4.3-.6.6zM328.1 573.4c.8.8 7.8 1 8.5.3.4-.4-1.4-.7-4.1-.7-2.7 0-4.6.2-4.4.4zM338.6 574.5c-.3.9 1.1 1.3 5.1 1.3 6.2 0 6-1.3-.4-2.1-2.8-.3-4.3-.1-4.7.8zM293 574.9c0 1.1 8.6.9 9.7-.2.3-.4-1.7-.7-4.5-.7-2.9 0-5.2.4-5.2.9zM317.8 574.7c.7.3 1.6.2 1.9-.1.4-.3-.2-.6-1.3-.5-1.1 0-1.4.3-.6.6zM321.5 575c.4.6 1.1.8 1.6.5 1.4-.9 1.1-1.5-.7-1.5-.8 0-1.2.5-.9 1zM335.5 577c.3.5.8 1 1.1 1 .2 0 .4-.5.4-1 0-.6-.5-1-1.1-1-.5 0-.7.4-.4 1zM357.8 577.7c.7.3 1.6.2 1.9-.1.4-.3-.2-.6-1.3-.5-1.1 0-1.4.3-.6.6zM304.5 581c.4.6-.7 1-2.7 1-3.2.1-3.2.1-1.3 1.6 1.2.9 2.1 1.1 2.3.4.2-.5 3.4-1 7.3-1 4.1 0 6.8-.4 6.4-.9-.3-.5-2.5-.8-5-.6-2.5.2-4.7 0-5-.6-.4-.5-1.1-.9-1.6-.9-.6 0-.7.4-.4 1zM318.5 582c-.3.5-.1 1 .4 1 .6 0 1.1-.5 1.1-1 0-.6-.2-1-.4-1-.3 0-.8.4-1.1 1zM322.5 582c.4.6 1.1.8 1.6.5 1.4-.9 1.1-1.5-.7-1.5-.8 0-1.2.5-.9 1zM151.3 582.7c1.5.2 3.7.2 5 0 1.2-.2 0-.4-2.8-.4-2.7 0-3.8.2-2.2.4zM242 583c-1.2.8-1 1 .8 1 1.3 0 2-.4 1.7-1-.7-1.2-.6-1.2-2.5 0zM279.3 583.7c.9.2 2.3.2 3 0 .6-.3-.1-.5-1.8-.5-1.6 0-2.2.2-1.2.5zM287 586.9c0 .6.4 1.3 1 1.6.6.3.7-.1.4-.9-.7-1.8-1.4-2.1-1.4-.7zM293 587.1c0 .5 1.6.9 3.5.9s3.5-.4 3.5-.8-1.6-.8-3.5-.9c-1.9-.1-3.5.3-3.5.8zM233.8 589.7c.7.3 1.6.2 1.9-.1.4-.3-.2-.6-1.3-.5-1.1 0-1.4.3-.6.6zM260.8 589.7c.6.2 1.8.2 2.5 0 .6-.3.1-.5-1.3-.5-1.4 0-1.9.2-1.2.5zM226.8 594.7c.7.3 1.6.2 1.9-.1.4-.3-.2-.6-1.3-.5-1.1 0-1.4.3-.6.6zM184.5 597c-.3.5-.1 1 .4 1 .6 0 1.1-.5 1.1-1 0-.6-.2-1-.4-1-.3 0-.8.4-1.1 1zM190.3 596.7c.9.2 2.3.2 3 0 .6-.3-.1-.5-1.8-.5-1.6 0-2.2.2-1.2.5zM203.8 596.7c1.2.2 3 .2 4 0 .9-.3-.1-.5-2.3-.4-2.2 0-3 .2-1.7.4zM173.3 597.7c1.5.2 3.7.2 5 0 1.2-.2 0-.4-2.8-.4-2.7 0-3.8.2-2.2.4zM235.5 598.1c-2.3.5-1.6.7 2.8.8 3.1 0 5.7-.1 5.7-.3 0-.8-5.6-1.1-8.5-.5zM246.5 598l2 .7-2 .5c-1.1.3.1.5 2.8.4 6.2-.1 6.2-2.1 0-2.2-3.2-.1-4.1.1-2.8.6zM256 598.5c0 .8.2 1.5.4 1.5s.6-.7 1-1.5c.3-.8.1-1.5-.4-1.5-.6 0-1 .7-1 1.5zM136.3 599.7c2 .2 5.4.2 7.5 0 2-.2.3-.4-3.8-.4s-5.8.2-3.7.4zM190.8 599.7c.6.2 1.8.2 2.5 0 .6-.3.1-.5-1.3-.5-1.4 0-1.9.2-1.2.5z"/></svg>